<?xml version="1.0" standalone="no"?><!DOCTYPE svg PUBLIC "-//W3C//DTD SVG 1.1//EN" "http://www.w3.org/Graphics/SVG/1.1/DTD/svg11.dtd"><svg t="1762136707887" class="icon" viewBox="0 0 1024 1024" version="1.1" xmlns="http://www.w3.org/2000/svg" p-id="8677" xmlns:xlink="http://www.w3.org/1999/xlink" width="200" height="200"><path d="M511.850073 0.299912C229.132901 0.299912 0.000029 229.432783 0.000029 512.149956s229.132871 511.850044 511.850044 511.850044 511.850044-229.132871 511.850044-511.850044S794.467275 0.299912 511.850073 0.299912z m204.740018 561.935371H522.247027c-3.399004 0.699795-6.798008 1.099678-10.396954 1.099677-28.291711 0-51.185004-22.893293-51.185004-51.185004V205.03993c0-28.291711 22.893293-51.185004 51.185004-51.185005 28.291711 0 51.185004 22.893293 51.185005 51.185005V459.865274h153.555013c28.291711 0 51.185004 22.893293 51.185004 51.185004 0 28.291711-22.993264 51.185004-51.185004 51.185005z" fill="" p-id="8678"></path></svg>